# xmcd
#
# Track frame offsets:
# 150
# 18917
# 42420
# 66190
#
# Disc length: 1202 seconds
#
#
# Revision: 2
# Processed by: cddbd v1.5.1PL0 Copyright (c) Steve Scherf et al.
# Submitted via: FreeRIP 2.40 
#
DISCID=2d04b004
DTITLE=Joan Osborne - St Teresa [CD 2)
DYEAR=1996
DGENRE=Rock
TTITLE0=St Teresa (Edit)
TTITLE1=One Of Us (Live)
TTITLE2=Help Me
TTITLE3=St Teresa (Album Version)
EXTD=
EXTT0=
EXTT1=
EXTT2=
EXTT3=
PLAYORDER=
